<svg width="33" height="32" viewBox="0 0 33 32" fill="none" xmlns="http://www.w3.org/2000/svg">
<path d="M19.4911 19.3944L25.6111 13.2744C25.8594 13.0246 25.9988 12.6866 25.9988 12.3344C25.9988 11.9821 25.8594 11.6442 25.6111 11.3944C25.4871 11.2694 25.3396 11.1702 25.1772 11.1025C25.0147 11.0349 24.8404 11 24.6644 11C24.4884 11 24.3141 11.0349 24.1516 11.1025C23.9891 11.1702 23.8417 11.2694 23.7177 11.3944L17.6111 17.5277C17.4871 17.6527 17.3396 17.7519 17.1772 17.8196C17.0147 17.8873 16.8404 17.9221 16.6644 17.9221C16.4884 17.9221 16.3141 17.8873 16.1516 17.8196C15.9891 17.7519 15.8417 17.6527 15.7177 17.5277L9.61106 11.3944C9.36175 11.1433 9.02292 11.0016 8.66911 11.0003C8.31529 10.9991 7.97546 11.1384 7.72439 11.3877C7.47332 11.637 7.33157 11.9759 7.33031 12.3297C7.32907 12.6835 7.46842 13.0233 7.71773 13.2744L13.8377 19.3944C14.5877 20.1435 15.6044 20.5642 16.6644 20.5642C17.7244 20.5642 18.7411 20.1435 19.4911 19.3944Z" fill="black"/>
</svg>
