<svg width="32" height="32" viewBox="0 0 32 32" fill="none" xmlns="http://www.w3.org/2000/svg">
<path d="M19.3944 13.5077L13.2744 7.38772C13.0246 7.13939 12.6866 7 12.3344 7C11.9822 7 11.6442 7.13939 11.3944 7.38772C11.2694 7.51167 11.1702 7.65914 11.1025 7.82162C11.0349 7.9841 11 8.15837 11 8.33439C11 8.51041 11.0349 8.68468 11.1025 8.84716C11.1702 9.00964 11.2694 9.15711 11.3944 9.28106L17.5277 15.3877C17.6527 15.5117 17.7519 15.6591 17.8196 15.8216C17.8873 15.9841 17.9221 16.1584 17.9221 16.3344C17.9221 16.5104 17.8873 16.6847 17.8196 16.8472C17.7519 17.0096 17.6527 17.1571 17.5277 17.2811L11.3944 23.3877C11.1433 23.637 11.0016 23.9759 11.0003 24.3297C10.9991 24.6835 11.1384 25.0233 11.3877 25.2744C11.637 25.5255 11.9759 25.6672 12.3297 25.6685C12.6835 25.6697 13.0233 25.5304 13.2744 25.2811L19.3944 19.1611C20.1435 18.4111 20.5642 17.3944 20.5642 16.3344C20.5642 15.2744 20.1435 14.2577 19.3944 13.5077Z" fill="black"/>
</svg>
