<svg width="33" height="32" viewBox="0 0 33 32" fill="none" xmlns="http://www.w3.org/2000/svg">
<path d="M14.5065 12.6056L8.3865 18.7256C8.13817 18.9754 7.99878 19.3134 7.99878 19.6656C7.99878 20.0179 8.13817 20.3558 8.3865 20.6056C8.51045 20.7306 8.65792 20.8298 8.8204 20.8975C8.98288 20.9651 9.15715 21 9.33317 21C9.50919 21 9.68346 20.9651 9.84594 20.8975C10.0084 20.8298 10.1559 20.7306 10.2798 20.6056L16.3865 14.4723C16.5105 14.3473 16.6579 14.2481 16.8204 14.1804C16.9829 14.1127 17.1572 14.0779 17.3332 14.0779C17.5092 14.0779 17.6835 14.1127 17.8459 14.1804C18.0084 14.2481 18.1559 14.3473 18.2798 14.4723L24.3865 20.6056C24.6358 20.8567 24.9746 20.9984 25.3285 20.9997C25.6823 21.0009 26.0221 20.8616 26.2732 20.6123C26.5242 20.363 26.666 20.0241 26.6672 19.6703C26.6685 19.3165 26.5291 18.9767 26.2798 18.7256L20.1598 12.6056C19.4098 11.8565 18.3932 11.4358 17.3332 11.4358C16.2732 11.4358 15.2565 11.8565 14.5065 12.6056Z" fill="black"/>
</svg>
