<svg width="32" height="32" viewBox="0 0 32 32" fill="none" xmlns="http://www.w3.org/2000/svg">
<path d="M11.4664 18.8267L17.5864 24.9467C17.8363 25.195 18.1742 25.3344 18.5264 25.3344C18.8787 25.3344 19.2166 25.195 19.4664 24.9467C19.5914 24.8227 19.6906 24.6753 19.7583 24.5128C19.826 24.3503 19.8608 24.176 19.8608 24C19.8608 23.824 19.826 23.6497 19.7583 23.4873C19.6906 23.3248 19.5914 23.1773 19.4664 23.0534L13.3331 16.9467C13.2081 16.8227 13.1089 16.6753 13.0413 16.5128C12.9736 16.3503 12.9387 16.176 12.9387 16C12.9387 15.824 12.9736 15.6497 13.0413 15.4873C13.1089 15.3248 13.2081 15.1773 13.3331 15.0534L19.4664 8.94669C19.7175 8.69738 19.8593 8.35856 19.8605 8.00474C19.8618 7.65092 19.7224 7.31109 19.4731 7.06002C19.2238 6.80895 18.885 6.6672 18.5312 6.66595C18.1773 6.6647 17.8375 6.80405 17.5864 7.05336L11.4664 13.1734C10.7174 13.9234 10.2966 14.94 10.2966 16C10.2966 17.06 10.7174 18.0767 11.4664 18.8267Z" fill="black"/>
</svg>
