<svg width="32" height="32" viewBox="0 0 32 32" fill="none" xmlns="http://www.w3.org/2000/svg">
<path d="M14.1333 16.9466C14.0083 16.8226 13.9091 16.6752 13.8415 16.5127C13.7738 16.3502 13.7389 16.1759 13.7389 15.9999C13.7389 15.8239 13.7738 15.6496 13.8415 15.4871C13.9091 15.3247 14.0083 15.1772 14.1333 15.0533L20.2533 8.94658C20.3783 8.82263 20.4775 8.67517 20.5452 8.51269C20.6129 8.35021 20.6477 8.17593 20.6477 7.99992C20.6477 7.8239 20.6129 7.64963 20.5452 7.48715C20.4775 7.32467 20.3783 7.1772 20.2533 7.05325C20.0035 6.80492 19.6656 6.66553 19.3133 6.66553C18.9611 6.66553 18.6231 6.80492 18.3733 7.05325L12.2533 13.1733C11.5042 13.9233 11.0835 14.9399 11.0835 15.9999C11.0835 17.0599 11.5042 18.0766 12.2533 18.8266L18.3733 24.9466C18.6217 25.1929 18.9569 25.3318 19.3066 25.3333C19.4821 25.3343 19.6561 25.3006 19.8185 25.2343C19.981 25.1679 20.1287 25.0702 20.2533 24.9466C20.3783 24.8226 20.4775 24.6752 20.5452 24.5127C20.6129 24.3502 20.6477 24.1759 20.6477 23.9999C20.6477 23.8239 20.6129 23.6496 20.5452 23.4871C20.4775 23.3247 20.3783 23.1772 20.2533 23.0533L14.1333 16.9466Z" fill="black"/>
</svg>
