<svg width="143" height="143" viewBox="0 0 143 143" fill="none" xmlns="http://www.w3.org/2000/svg">
<g clip-path="url(#clip0_798_230)">
<path d="M143 143H0V-1.92598e-06H143V143Z" fill="white"/>
<path d="M36.4512 71.5001C36.4512 52.1431 52.1432 36.451 71.5002 36.451C90.8572 36.451 106.549 52.1431 106.549 71.5001C106.549 90.8571 90.8572 106.549 71.5002 106.549C52.1432 106.549 36.4512 90.8571 36.4512 71.5001Z" fill="#95B84C"/>
<path d="M89.8373 41.5856C93.3277 47.0347 95.3516 53.5133 95.3516 60.4646C95.3516 79.8217 79.6596 95.5136 60.3026 95.5136C53.5798 95.5136 47.3002 93.6195 41.9653 90.3379C48.1944 100.062 59.0945 106.508 71.5002 106.508C90.8572 106.508 106.549 90.8158 106.549 71.4588C106.549 58.8244 99.8632 47.753 89.8373 41.5856Z" fill="#85A94C"/>
<path d="M41.2146 75.1977C41.2146 57.2259 55.7837 42.6568 73.7555 42.6568C84.2602 42.6568 93.6007 47.636 99.5503 55.3611C93.9313 45.6062 83.3993 39.039 71.3333 39.039C53.3615 39.039 38.7925 53.6079 38.7925 71.5798C38.7925 79.0469 41.3093 85.9252 45.5385 91.4165C42.7882 86.6418 41.2146 81.1036 41.2146 75.1977Z" fill="#A2C24B"/>
<path d="M93.2098 82.1078C92.278 79.0798 90.0157 77.123 87.4458 77.123C86.4763 77.123 85.5111 77.4132 84.6547 77.9617C84.0176 78.3695 83.5328 78.9453 83.0639 79.5024C82.835 79.7743 82.6187 80.0309 82.3911 80.2624C81.9388 80.7217 81.3317 81.1099 80.6817 81.3557C79.3665 81.8522 77.375 81.4595 76.3163 79.9429C75.0637 78.151 73.3011 77.123 71.4801 77.123C70.1405 77.123 68.8368 77.7138 67.7096 78.8311C67.4424 79.0963 67.2127 79.3887 66.9909 79.6714C66.7936 79.9226 66.6069 80.1602 66.4094 80.3598C66.0427 80.7299 65.5621 80.9719 65.0171 81.2277C64.3527 81.5401 63.6559 81.6507 63.0027 81.5472C62.147 81.412 61.2428 80.9276 60.5841 80.2517C60.3729 80.0351 60.1652 79.7943 59.9451 79.5389C59.4407 78.9544 58.9195 78.3499 58.2715 77.941C57.4234 77.4058 56.4701 77.123 55.5145 77.123C52.9985 77.123 50.7535 79.024 49.7954 81.9656C49.6167 82.5138 49.8391 83.1186 50.3122 83.3723C50.7325 83.5984 51.221 83.49 51.5276 83.1028C52.7325 81.5846 54.7323 80.2085 56.7342 80.9036C57.7194 81.2454 58.5319 82.1526 59.2158 82.9758C60.1885 84.1474 61.4584 84.8947 62.7922 85.0804C63.0175 85.1114 63.2468 85.1272 63.4738 85.1272C65.1049 85.1272 66.6994 84.2911 67.8485 82.834L68.0591 82.5642C68.455 82.0531 68.768 81.6494 69.2384 81.3563C69.8068 81.0024 70.4246 80.7728 71.024 80.6922C71.6648 80.6066 72.3307 80.7282 73.0016 81.0542C73.3307 81.2145 73.6644 81.4263 73.9936 81.6845C74.3363 81.9537 74.6472 82.3225 74.976 82.7133C75.3248 83.1272 75.6852 83.5555 76.1228 83.9081C77.1117 84.7057 78.2587 85.1272 79.4394 85.1272C80.7439 85.1272 81.9971 84.5962 83.0636 83.5919C83.2251 83.4397 83.505 83.146 83.829 82.8058C84.2514 82.3625 85.0373 81.5378 85.2321 81.4064C86.6959 80.4179 88.303 80.4597 89.7581 81.5228C90.3346 81.944 90.8938 82.5018 91.4692 83.2284C91.7757 83.6155 92.2629 83.7268 92.6826 83.5064C93.1604 83.2549 93.3819 82.6669 93.2098 82.1078Z" fill="#594A3C"/>
<path d="M61.2759 68.4687L59.0086 70.7361L48.792 60.5195L51.0593 58.2523L61.2759 68.4687Z" fill="#333333"/>
<path d="M51.0593 70.7361L48.792 68.4687L59.0086 58.2523L61.2759 60.5195L51.0593 70.7361Z" fill="#333333"/>
<path d="M94.2081 68.4687L91.9407 70.7361L81.7241 60.5195L83.9915 58.2523L94.2081 68.4687Z" fill="#333333"/>
<path d="M83.9915 70.7361L81.7241 68.4687L91.9407 58.2523L94.2081 60.5195L83.9915 70.7361Z" fill="#333333"/>
</g>
<defs>
<clipPath id="clip0_798_230">
<rect width="143" height="143" fill="white"/>
</clipPath>
</defs>
</svg>
