<svg width="143" height="143" viewBox="0 0 143 143" fill="none" xmlns="http://www.w3.org/2000/svg">
<g clip-path="url(#clip0_1173_110)">
<path d="M143 143H0V-1.92598e-06H143V143Z" fill="white"/>
<path d="M36.4512 71.5001C36.4512 52.1431 52.1432 36.451 71.5002 36.451C90.8572 36.451 106.549 52.1431 106.549 71.5001C106.549 90.8571 90.8572 106.549 71.5002 106.549C52.1432 106.549 36.4512 90.8571 36.4512 71.5001Z" fill="#D66D2E"/>
<path d="M89.8373 41.5856C93.3277 47.0347 95.3516 53.5133 95.3516 60.4646C95.3516 79.8217 79.6596 95.5136 60.3026 95.5136C53.5798 95.5136 47.3002 93.6195 41.9653 90.3379C48.1944 100.062 59.0945 106.508 71.5002 106.508C90.8572 106.508 106.549 90.8158 106.549 71.4588C106.549 58.8244 99.8633 47.753 89.8373 41.5856Z" fill="#D3642B"/>
<path d="M41.2146 75.1977C41.2146 57.2259 55.7837 42.6568 73.7555 42.6568C84.2602 42.6568 93.6007 47.636 99.5503 55.3611C93.9313 45.6062 83.3993 39.039 71.3333 39.039C53.3615 39.039 38.7925 53.6079 38.7925 71.5798C38.7925 79.0469 41.3093 85.9252 45.5385 91.4165C42.7882 86.6418 41.2146 81.1036 41.2146 75.1977Z" fill="#DA8252"/>
<path d="M61.1698 64.9776C61.1698 67.3817 60.0136 69.3306 58.5874 69.3306C57.1611 69.3306 56.0049 67.3817 56.0049 64.9776C56.0049 62.5735 57.1611 60.6246 58.5874 60.6246C60.0136 60.6246 61.1698 62.5735 61.1698 64.9776Z" fill="#333333"/>
<path d="M86.995 64.9776C86.995 67.3817 85.8388 69.3306 84.4125 69.3306C82.9863 69.3306 81.8301 67.3817 81.8301 64.9776C81.8301 62.5735 82.9863 60.6246 84.4125 60.6246C85.8388 60.6246 86.995 62.5735 86.995 64.9776Z" fill="#333333"/>
<path d="M85.866 87.077C86.7687 87.9538 88.2154 86.9838 87.7477 85.8153C85.158 79.3448 78.8322 74.7738 71.4365 74.7738C64.1643 74.7738 57.9266 79.1934 55.2581 85.4929C54.7714 86.6421 56.2296 87.6369 57.1254 86.7682C62.2548 81.7949 73.1441 74.7186 85.866 87.077Z" fill="#594A3C"/>
<path d="M65.8668 58.9197L63.5166 61.2698L55.6748 53.4281L58.025 51.078L65.8668 58.9197Z" fill="#333333"/>
<path d="M79.4835 61.2698L77.1333 58.9197L84.9751 51.078L87.3253 53.4281L79.4835 61.2698Z" fill="#333333"/>
</g>
<defs>
<clipPath id="clip0_1173_110">
<rect width="143" height="143" fill="white"/>
</clipPath>
</defs>
</svg>
