<svg width="143" height="143" viewBox="0 0 143 143" fill="none" xmlns="http://www.w3.org/2000/svg">
<g clip-path="url(#clip0_809_114)">
<path d="M143 143H0V-1.92598e-06H143V143Z" fill="white"/>
<path d="M36.4512 71.5001C36.4512 52.1431 52.1432 36.451 71.5002 36.451C90.8572 36.451 106.549 52.1431 106.549 71.5001C106.549 90.8571 90.8572 106.549 71.5002 106.549C52.1432 106.549 36.4512 90.8571 36.4512 71.5001Z" fill="#F3D065"/>
<path d="M89.8373 41.5856C93.3277 47.0347 95.3516 53.5133 95.3516 60.4646C95.3516 79.8217 79.6596 95.5136 60.3026 95.5136C53.5798 95.5136 47.3002 93.6195 41.9653 90.3379C48.1944 100.062 59.0945 106.508 71.5002 106.508C90.8572 106.508 106.549 90.8158 106.549 71.4588C106.549 58.8244 99.8632 47.753 89.8373 41.5856Z" fill="#EFC45C"/>
<path d="M41.2146 75.1977C41.2146 57.2259 55.7836 42.6568 73.7555 42.6568C84.2602 42.6568 93.6007 47.636 99.5504 55.3611C93.9313 45.6062 83.3993 39.039 71.3334 39.039C53.3615 39.039 38.7925 53.6079 38.7925 71.5798C38.7925 79.0469 41.3093 85.9252 45.5385 91.4165C42.7882 86.6418 41.2146 81.1036 41.2146 75.1977Z" fill="#F5D783"/>
<path d="M86.3967 88.3032C85.5524 80.822 79.2067 75.0072 71.4999 75.0072C63.793 75.0072 57.4473 80.822 56.603 88.3032H86.3967Z" fill="#635445"/>
<path d="M56.603 88.3032C56.603 88.3032 69.1721 79.0363 86.3967 88.3032H56.603Z" fill="#D46669"/>
<path d="M52.5949 72.0659C52.1525 72.0659 51.7149 71.8693 51.4219 71.4934C50.9176 70.8463 51.0335 69.9126 51.6808 69.4084L56.7359 65.47L51.5105 62.3966C50.8032 61.9809 50.5673 61.07 50.9831 60.3629C51.3996 59.6555 52.3098 59.4196 53.0169 59.8356L60.127 64.0174C60.5513 64.2669 60.8242 64.7103 60.8562 65.2013C60.8885 65.6924 60.675 66.1675 60.2868 66.4699L53.5069 71.7523C53.2358 71.9638 52.914 72.0659 52.5949 72.0659Z" fill="#333333"/>
<path d="M90.4053 72.0659C90.0862 72.0659 89.7643 71.9638 89.4933 71.7523L82.7136 66.4699C82.3254 66.1675 82.1121 65.6924 82.1443 65.2013C82.1762 64.7103 82.4493 64.2669 82.8736 64.0174L89.9833 59.8356C90.6894 59.4202 91.6005 59.6553 92.017 60.3629C92.4329 61.07 92.197 61.9809 91.4897 62.3966L86.2647 65.47L91.3194 69.4084C91.9667 69.9126 92.0826 70.8463 91.5782 71.4934C91.2852 71.8693 90.8477 72.0659 90.4053 72.0659Z" fill="#333333"/>
</g>
<defs>
<clipPath id="clip0_809_114">
<rect width="143" height="143" fill="white"/>
</clipPath>
</defs>
</svg>
