<svg width="12" height="12" viewBox="0 0 12 12" fill="none" xmlns="http://www.w3.org/2000/svg">
<path d="M6.74999 2.49994C6.81149 2.49994 6.87249 2.52244 6.92049 2.56744C7.02149 2.66144 7.02649 2.81994 6.93249 2.92094L4.86149 5.13594C4.62599 5.37144 4.49999 5.67594 4.49999 6.00044C4.49999 6.32494 4.62599 6.62944 4.85549 6.85894L6.93249 9.07944C7.02649 9.18044 7.02149 9.33894 6.92049 9.43294C6.81999 9.52644 6.66149 9.52244 6.56699 9.42144L4.49599 7.20644C4.17799 6.88844 3.99949 6.45844 3.99949 6.00044C3.99949 5.54244 4.17799 5.11244 4.50149 4.78844L6.56649 2.57944C6.61599 2.52694 6.68249 2.50044 6.74899 2.50044L6.74999 2.49994Z" fill="black"/>
</svg>
