<svg width="12" height="12" viewBox="0 0 12 12" fill="none" xmlns="http://www.w3.org/2000/svg">
<path d="M5.25001 9.50006C5.18851 9.50006 5.12751 9.47756 5.07951 9.43256C4.97851 9.33856 4.97351 9.18006 5.06751 9.07906L7.13851 6.86406C7.37401 6.62856 7.50001 6.32406 7.50001 5.99956C7.50001 5.67506 7.37401 5.37056 7.14451 5.14106L5.06751 2.92056C4.97351 2.81956 4.97851 2.66106 5.07951 2.56706C5.18001 2.47356 5.33851 2.47756 5.43301 2.57856L7.50401 4.79356C7.82201 5.11156 8.00051 5.54156 8.00051 5.99956C8.00051 6.45756 7.82201 6.88756 7.49851 7.21156L5.43351 9.42056C5.38401 9.47306 5.31751 9.49956 5.25101 9.49956L5.25001 9.50006Z" fill="black"/>
</svg>
