<svg width="153" height="153" viewBox="0 0 153 153" fill="none" xmlns="http://www.w3.org/2000/svg">
<g clip-path="url(#clip0_797_163)">
<path d="M0 2.86102e-06H153V153H0V2.86102e-06Z" fill="white"/>
<path d="M98.4683 109.154L20.5494 133.353C17.1707 134.402 14.0003 131.231 15.0493 127.853L39.2486 49.9337L98.4683 109.154Z" fill="#F8CC2A"/>
<path d="M100.86 107.773C95.1807 113.452 77.0935 104.573 60.4614 87.9404C43.8293 71.3086 34.9502 53.2214 40.6296 47.5421C46.3089 41.863 64.3958 50.7421 81.0279 67.3742C97.6601 84.0066 106.539 102.093 100.86 107.773Z" fill="#FBD54D"/>
<mask id="mask0_797_163" style="mask-type:luminance" maskUnits="userSpaceOnUse" x="42" y="48" width="58" height="59">
<path d="M98.1268 105.037C95.9037 107.257 90.8341 106.639 84.2094 103.336C77.2456 99.8631 69.3322 93.8726 61.9298 86.4705C54.5277 79.0709 48.5398 71.1572 45.0669 64.1909C41.7636 57.5688 41.143 52.4966 43.3633 50.2763C45.5835 48.056 50.6558 48.6769 57.2804 51.98C64.2442 55.4528 72.1579 61.4407 79.56 68.8429C86.9619 76.245 92.9501 84.1587 96.4229 91.1225C99.7259 97.7446 100.347 102.817 98.1268 105.037Z" fill="white"/>
</mask>
<g mask="url(#mask0_797_163)">
<path d="M98.1268 105.037C95.9037 107.257 90.8341 106.639 84.2094 103.336C77.2456 99.8631 69.3322 93.8726 61.9298 86.4705C54.5277 79.0709 48.5398 71.1572 45.0669 64.1909C41.7636 57.5688 41.143 52.4966 43.3633 50.2763C45.5835 48.056 50.6558 48.6769 57.2804 51.98C64.2442 55.4528 72.1579 61.4407 79.56 68.8429C86.9619 76.245 92.9501 84.1587 96.4229 91.1225C99.7259 97.7446 100.347 102.817 98.1268 105.037Z" fill="url(#paint0_linear_797_163)"/>
</g>
<path d="M87.286 112.626L72.2048 117.309C68.8582 116.114 65.5677 114.677 62.3389 113.005C55.3108 109.365 48.549 104.586 42.2408 98.804C41.217 97.8651 40.096 96.7974 38.9034 95.6045C35.8199 92.5208 32.2647 88.6014 28.7036 83.889L31.8034 73.9081C37.4652 82.4197 43.5778 88.756 47.8572 92.6766C59.9016 103.719 73.1509 110.42 87.286 112.626Z" fill="#3B59B1"/>
<path d="M62.1333 120.438L50.2429 124.132C43.4441 120.533 36.901 115.87 30.7826 110.262C29.7587 109.324 28.638 108.256 27.4449 107.063C26.0375 105.656 24.5348 104.076 22.9761 102.327L25.8952 92.9262C29.7646 97.7182 33.5034 101.48 36.3987 104.135C44.4682 111.535 53.078 116.983 62.1333 120.438Z" fill="#3B59B1"/>
<path d="M40.603 127.125L30.1671 130.366C26.4357 127.807 22.8101 124.916 19.3241 121.721C18.7424 121.186 18.1298 120.612 17.4893 119.995L20.2758 111.023C21.9712 112.795 23.5535 114.321 24.9401 115.594C29.9598 120.196 35.1881 124.044 40.603 127.125Z" fill="#3B59B1"/>
<path d="M60.1801 59.8098L56.4902 56.12C62.3499 50.2603 65.699 42.7307 66.4439 33.7401C67.0108 26.9005 65.7768 21.7406 65.7643 21.6894L70.8304 20.4381C70.8891 20.6755 72.263 26.3337 71.6602 33.9783C70.8562 44.1712 66.8866 53.1036 60.1801 59.8098Z" fill="#EE203B"/>
<path d="M89.5146 92.8342L85.8247 89.1444C93.0501 81.919 103.273 78.2847 115.388 78.6343C124.381 78.8939 131.224 81.2289 131.511 81.3284L129.804 86.2596L130.657 83.794L129.806 86.2603C129.742 86.2387 123.317 84.0604 115.093 83.8465C104.364 83.567 95.7577 86.5911 89.5146 92.8342Z" fill="#3B59B1"/>
<path d="M71.46 54.541C73.3508 51.3971 75.8375 50.576 77.6531 49.9767C79.19 49.4695 80.1177 49.1633 81.0107 47.6782C81.9042 46.193 81.74 45.2304 81.4677 43.6351C81.1466 41.7504 80.7063 39.1691 82.5973 36.0252C84.4884 32.881 86.9752 32.0602 88.7908 31.4604C90.3279 30.953 91.2551 30.6467 92.1489 29.1613C93.0424 27.676 92.8782 26.7131 92.6063 25.1175C92.2848 23.2326 91.8449 20.6512 93.736 17.5071L98.2077 20.1968C97.3142 21.6824 97.4786 22.6453 97.7505 24.2406C98.0718 26.1256 98.5116 28.7072 96.6206 31.8511C94.7292 34.995 92.2427 35.8161 90.4269 36.4156C88.8902 36.923 87.9625 37.2295 87.069 38.7149C86.1758 40.1998 86.34 41.1629 86.6118 42.7579C86.9334 44.6426 87.3737 47.224 85.4827 50.3679C83.5916 53.5118 81.1048 54.3326 79.2892 54.9321C77.7526 55.4393 76.8249 55.7456 75.9316 57.2307L71.46 54.541Z" fill="#F04425"/>
<path d="M92.9736 68.5268L90.4165 63.9778C93.7126 62.1253 96.3634 62.6582 98.2988 63.0471C99.9759 63.3842 100.988 63.5877 102.596 62.6837C104.205 61.78 104.557 60.8097 105.14 59.2019C105.814 57.346 106.737 54.8047 110.033 52.9521C113.329 51.0996 115.98 51.6323 117.916 52.0214C119.593 52.3582 120.605 52.5617 122.214 51.6575C123.822 50.7535 124.175 49.783 124.759 48.1752C125.433 46.3196 126.356 43.7778 129.652 41.9252L132.208 46.4744C130.6 47.3786 130.247 48.3489 129.663 49.9567C128.99 51.8125 128.066 54.3541 124.77 56.2067C121.474 58.0593 118.823 57.5263 116.888 57.1375C115.211 56.8006 114.198 56.5969 112.59 57.5011C110.981 58.4051 110.629 59.3753 110.046 60.9829C109.371 62.8387 108.449 65.3803 105.153 67.2329C101.857 69.0852 99.2061 68.5523 97.2706 68.1631C95.594 67.8263 94.5819 67.6231 92.9736 68.5268Z" fill="#4C45A4"/>
<path d="M127.889 68.112C126.87 69.131 125.219 69.131 124.2 68.112C123.181 67.093 123.181 65.4409 124.2 64.4221C125.219 63.4032 126.87 63.4032 127.889 64.4221C128.908 65.4409 128.908 67.093 127.889 68.112Z" fill="#4C45A4"/>
<path d="M116.267 98.5534C115.248 99.5724 113.596 99.5724 112.577 98.5534C111.558 97.5347 111.558 95.8828 112.577 94.8638C113.596 93.8448 115.248 93.8448 116.267 94.8638C117.285 95.8828 117.285 97.5347 116.267 98.5534Z" fill="#EE203B"/>
<path d="M140.251 76.4144C139.232 77.4331 137.58 77.4331 136.561 76.4144C135.542 75.3954 135.542 73.7433 136.561 72.7246C137.58 71.7056 139.232 71.7056 140.251 72.7246C141.27 73.7433 141.27 75.3954 140.251 76.4144Z" fill="#3B59B1"/>
<path d="M119.034 40.4379C118.015 41.4569 116.363 41.4569 115.344 40.4379C114.325 39.4189 114.325 37.7668 115.344 36.7478C116.363 35.7291 118.015 35.7291 119.034 36.7478C120.053 37.7668 120.053 39.4189 119.034 40.4379Z" fill="#F04425"/>
<path d="M80.6592 21.2504C79.6402 22.2691 77.9883 22.2691 76.9693 21.2504C75.9503 20.2314 75.9503 18.5795 76.9693 17.5605C77.9883 16.5415 79.6402 16.5415 80.6592 17.5605C81.6781 18.5795 81.6781 20.2314 80.6592 21.2504Z" fill="#3B59B1"/>
<path d="M98.7398 43.7587C97.7208 44.7777 96.0687 44.7777 95.0497 43.7587C94.031 42.7397 94.031 41.0876 95.0497 40.0689C96.0687 39.0499 97.7208 39.0499 98.7398 40.0689C99.7588 41.0876 99.7588 42.7397 98.7398 43.7587Z" fill="#F8CC2A"/>
<path d="M78.9985 76.0453C77.9798 77.0643 76.3276 77.0643 75.3087 76.0453C74.2897 75.0264 74.2897 73.3745 75.3087 72.3555C76.3276 71.3365 77.9798 71.3365 78.9985 72.3555C80.0175 73.3745 80.0175 75.0264 78.9985 76.0453Z" fill="#F04425"/>
<path d="M51.6933 33.6115C50.6746 34.6305 49.0225 34.6305 48.0035 33.6115C46.9845 32.5925 46.9845 30.9404 48.0035 29.9216C49.0225 28.9027 50.6746 28.9027 51.6933 29.9216C52.7123 30.9404 52.7123 32.5925 51.6933 33.6115Z" fill="#4C45A4"/>
</g>
<defs>
<linearGradient id="paint0_linear_797_163" x1="62.1812" y1="86.7913" x2="79.3086" y2="68.522" gradientUnits="userSpaceOnUse">
<stop stop-color="#66423B"/>
<stop offset="1" stop-color="#422E2B"/>
</linearGradient>
<clipPath id="clip0_797_163">
<rect width="153" height="153" fill="white"/>
</clipPath>
</defs>
</svg>
